<svg xmlns="http://www.w3.org/2000/svg" viewBox="0 0 235.59 77.24"><defs><style>.cls-1{fill:#4285f4;}.cls-2{fill:#ea4335;}.cls-3{fill:#fbbc05;}.cls-4{fill:#34a853;}</style></defs><title>Recurso 1</title><g id="Capa_2" data-name="Capa 2"><g id="Capa_1-2" data-name="Capa 1"><path id="path2998-2" class="cls-1" d="M57.94,27.26H30.43v8.15H49.92c-1,11.46-10.51,16.3-19.48,16.3A21.47,21.47,0,0,1,8.91,30.32V30A21.44,21.44,0,0,1,30,8.16h.47a21.17,21.17,0,0,1,14.71,5.93l5.73-5.93A29.05,29.05,0,0,0,30.17,0,30.38,30.38,0,0,0,0,29.8,30.39,30.39,0,0,0,30.63,59.86c16,0,27.76-11,27.76-27.26a26.57,26.57,0,0,0-.45-5.34Z"/><path id="path3000-2" class="cls-2" d="M80.42,21.34A19.26,19.26,0,1,0,99.71,40.63,18.75,18.75,0,0,0,81.49,21.34C81.13,21.33,80.77,21.33,80.42,21.34Zm.12,7.57A11.09,11.09,0,0,1,91.39,40.22c0,.14,0,.27,0,.41A10.95,10.95,0,0,1,69.52,42a11.71,11.71,0,0,1,0-1.45A11.09,11.09,0,0,1,80.05,28.92Z"/><path id="path3005-2" class="cls-3" d="M122.57,21.34a19.26,19.26,0,1,0,19.29,19.29,19,19,0,0,0-18.73-19.29A5.23,5.23,0,0,0,122.57,21.34Zm.06,7.57a11.08,11.08,0,0,1,10.84,11.31c0,.14,0,.27,0,.41A10.95,10.95,0,0,1,111.61,42a10,10,0,0,1,0-1.45,11.13,11.13,0,0,1,10.59-11.64Z"/><path id="path3007-2" class="cls-1" d="M163.89,21.34a19.28,19.28,0,0,0-.13,38.52,12.82,12.82,0,0,0,10.57-4.65V59c0,6.63-4,10.63-10.12,10.63a10.72,10.72,0,0,1-9.87-6.88L147,65.91a18.51,18.51,0,0,0,17.31,11.33c10.32,0,18.15-6.49,18.15-20.06V22.48h-8.09v3.25a14.13,14.13,0,0,0-10.44-4.4Zm.7,7.57c5.09,0,10.32,4.33,10.32,11.72s-5.23,11.66-10.38,11.66a10.92,10.92,0,0,1-10.66-11.14c0-.15,0-.3,0-.45a11,11,0,0,1,10.2-11.76l.5,0Z"/><path id="path3011-2" class="cls-2" d="M218.21,21.27c-9.75,0-18,7.77-18,19.23a18.65,18.65,0,0,0,17.93,19.35h1a19.46,19.46,0,0,0,16.11-8.46l-6.69-4.46a10.74,10.74,0,0,1-9.42,5.29,9.89,9.89,0,0,1-9.43-5.86l25.86-10.63-1.34-3.12A17.47,17.47,0,0,0,218.2,21.28Zm.38,7.45a7.66,7.66,0,0,1,7.13,4.14l-17.26,7.2a10.68,10.68,0,0,1,10-11.33Z"/><path id="path3015-2" class="cls-4" d="M188,58.71h8.46V1.92H188Z"/></g></g></svg>